<mxfile host="app.diagrams.net" modified="2022-05-14T07:30:29.416Z" agent="5.0 (Macintosh; Intel Mac OS X 10_15_7) AppleWebKit/537.36 (KHTML, like Gecko) Chrome/101.0.4951.54 Safari/537.36" etag="Yhgz9mJDE0y7wpQChbPT" version="18.0.3" type="github">
  <diagram id="Zd1Ck5uX0w6deonq15T6" name="Page-1">
    <mxGraphModel dx="1002" dy="623" grid="0" gridSize="10" guides="1" tooltips="1" connect="1" arrows="1" fold="1" page="1" pageScale="1" pageWidth="827" pageHeight="1169" math="0" shadow="0">
      <root>
        <mxCell id="0" />
        <mxCell id="1" parent="0" />
        <mxCell id="fiC80e0MqhVzmSooXyf7-60" value="" style="shape=cube;whiteSpace=wrap;html=1;boundedLbl=1;backgroundOutline=1;darkOpacity=0.05;darkOpacity2=0.1;rounded=0;fillColor=#f5f5f5;fontColor=#333333;strokeColor=#666666;" parent="1" vertex="1">
          <mxGeometry x="379" y="249" width="120" height="80" as="geometry" />
        </mxCell>
        <mxCell id="fiC80e0MqhVzmSooXyf7-62" style="edgeStyle=orthogonalEdgeStyle;curved=1;rounded=0;orthogonalLoop=1;jettySize=auto;html=1;entryX=0;entryY=0;entryDx=0;entryDy=30;entryPerimeter=0;sketch=1;" parent="1" source="fiC80e0MqhVzmSooXyf7-58" target="fiC80e0MqhVzmSooXyf7-60" edge="1">
          <mxGeometry relative="1" as="geometry" />
        </mxCell>
        <mxCell id="fiC80e0MqhVzmSooXyf7-58" value="" style="ellipse;whiteSpace=wrap;html=1;aspect=fixed;rounded=0;fillColor=#1ba1e2;fontColor=#ffffff;strokeColor=#006EAF;" parent="1" vertex="1">
          <mxGeometry x="229" y="279" width="44" height="44" as="geometry" />
        </mxCell>
        <mxCell id="fiC80e0MqhVzmSooXyf7-63" style="edgeStyle=orthogonalEdgeStyle;curved=1;rounded=0;orthogonalLoop=1;jettySize=auto;html=1;entryX=0;entryY=0.5;entryDx=0;entryDy=0;sketch=1;" parent="1" source="fiC80e0MqhVzmSooXyf7-60" target="fiC80e0MqhVzmSooXyf7-61" edge="1">
          <mxGeometry relative="1" as="geometry" />
        </mxCell>
        <mxCell id="V_PbAXa_nVeIReF9qtl--7" style="edgeStyle=orthogonalEdgeStyle;curved=1;orthogonalLoop=1;jettySize=auto;html=1;entryX=0;entryY=0.5;entryDx=0;entryDy=0;sketch=1;" parent="1" source="fiC80e0MqhVzmSooXyf7-60" target="V_PbAXa_nVeIReF9qtl--6" edge="1">
          <mxGeometry relative="1" as="geometry" />
        </mxCell>
        <mxCell id="fiC80e0MqhVzmSooXyf7-61" value="" style="ellipse;whiteSpace=wrap;html=1;aspect=fixed;rounded=0;fillColor=#60a917;fontColor=#ffffff;strokeColor=#2D7600;" parent="1" vertex="1">
          <mxGeometry x="594" y="318" width="44" height="44" as="geometry" />
        </mxCell>
        <mxCell id="fiC80e0MqhVzmSooXyf7-70" value="" style="group;rounded=0;" parent="1" vertex="1" connectable="0">
          <mxGeometry x="414" y="285" width="73" height="26" as="geometry" />
        </mxCell>
        <mxCell id="fiC80e0MqhVzmSooXyf7-64" value="" style="outlineConnect=0;fontColor=#ffffff;fillColor=#1ba1e2;strokeColor=#006EAF;dashed=0;verticalLabelPosition=bottom;verticalAlign=top;align=center;html=1;fontSize=12;fontStyle=0;aspect=fixed;pointerEvents=1;shape=mxgraph.aws4.gear;rounded=0;rotation=90;" parent="fiC80e0MqhVzmSooXyf7-70" vertex="1">
          <mxGeometry width="26" height="26" as="geometry" />
        </mxCell>
        <mxCell id="fiC80e0MqhVzmSooXyf7-66" value="" style="outlineConnect=0;fontColor=#ffffff;fillColor=#60a917;strokeColor=#2D7600;dashed=0;verticalLabelPosition=bottom;verticalAlign=top;align=center;html=1;fontSize=12;fontStyle=0;aspect=fixed;pointerEvents=1;shape=mxgraph.aws4.gear;rounded=0;rotation=90;" parent="fiC80e0MqhVzmSooXyf7-70" vertex="1">
          <mxGeometry x="47" width="26" height="26" as="geometry" />
        </mxCell>
        <mxCell id="fiC80e0MqhVzmSooXyf7-67" style="edgeStyle=orthogonalEdgeStyle;curved=1;rounded=0;orthogonalLoop=1;jettySize=auto;html=1;" parent="fiC80e0MqhVzmSooXyf7-70" source="fiC80e0MqhVzmSooXyf7-64" target="fiC80e0MqhVzmSooXyf7-66" edge="1">
          <mxGeometry relative="1" as="geometry" />
        </mxCell>
        <mxCell id="fiC80e0MqhVzmSooXyf7-81" value="" style="group;rounded=0;" parent="1" vertex="1" connectable="0">
          <mxGeometry x="397" y="216" width="92" height="46" as="geometry" />
        </mxCell>
        <mxCell id="fiC80e0MqhVzmSooXyf7-71" value="" style="shape=stencil(lVdJcttADHyNrqgZYNaz4/zDVZZjVRzLJTvb7wNGGUoAyXZ8oyj0EFujMTu5eX28e9nvOLy+nY5f9z8P92+PO/m0Yz48P+5Phzd92sntTm4ejqf9l9Px+/P9+ffL3WQ5PX07/phO+HXGtUzSJxSH3+c3kanK3zefz4Cnw/MVoGYq0QLiOGIVUIRKMIBOOW3bZ6a48EiARylRcoBGqW4DpJNUA2ChBkKQQlEsoFMNAMDUrUtSKSCXInE2gJQptG2AOtCKAWShBNLKjUoygBJHVFuA5AB15G0LkJsBVKacIcDFUDsVAJBA0X6hFWJQB/1CtWntZRyxDigkbAGVGopB2WLp0DtF3gZob3L3APSFKJTFAzqoQ6PO3h7RIVF3OWqQ0EyBfU7/1XHVPlCyVe7a2qDx1N6dLxSAP5G6q8BMpo14q/WnadeB89v4d7bXRkf+CHHzgAASpC0RsgdExGXlVfAA2KXa9a4GAeZ0Crr4pFbkkg7ERdUKGi/dTzxtiwyyxNWnVamJdEELHRxx5nGwXgcl4oJpBTAn5kH1WXmC5hUMpKjNvRgXSEm0cNXH0CIipxupmqQE7AM19lUokMzszhe4Lix0TfuogT76qH1YkDmNIm7YB8ucdyQnkNh6TZoG85ntsFDRRAqlGmzjLfpFxAJK1j7jdW2uzrxXJDgclYO2HyTD/mljcZo3ozq2sa3h6JY1fmcSBb976REFMUAdcMORGGWojITPIWO5bJ4y6iHwRxsgBmePRkQT7w/D5bSz1/s0BHfdPi9WzbEArNtrA9vzM2TMNGStfRk9tW7fvdRUyLCrEXspMBKOy4S9XEAKckgLbO11aqOOu+jQ1ZUIkUBLIFbK9IqDpsS0AS0ASDZU3nPyALg0VuryIcBHL47/AdCHyz314fD0dL7mXv/v77X66nwnlts/);lineShape=1;rounded=0;" parent="fiC80e0MqhVzmSooXyf7-81" vertex="1">
          <mxGeometry x="7.181911140552393" y="2.9872423537535386" width="14.848811615086348" height="29.662865502212657" as="geometry" />
        </mxCell>
        <mxCell id="fiC80e0MqhVzmSooXyf7-72" value="" style="shape=stencil(lVbLctswDPwaXTEkwOc5Tf8jM3FqTV074zht8/eBqpEqwPZ2epMorEgAu0sM8vC2f3rdDRzeLufT992v8fmyH+TLwDwe97vzeNGnQR4HeXg5nXffzqf34/P8/vo0RU5PP04/pz/8nnGNepxAHD7mhZiJw5+Vr3P8YTxu4jlSYgtgKvE+IAWqdoeyLNyMz5VaMPFMod2Pr5FaN/GBAkigM0myCRRKFQDy8nk9EFMWAKjU7Q7CxAkAOmVbopQog5xjWHNcELkRZ7iFFAOY6oaTKDbrJkuh75Up2D50oYjqetW43qiCzrXmqadZdQTQI9lG9EIFNKKxz6F1YpBD7T6H2igXAGi+rCVTYQjItnFZ64YA3QNEfwEa1+LCtZXflQRQoyVKlnxRqwQk3SpV5xkZalqpwVeuJAigR3I5qEIQ+arfQZ2wgMYp1aJNWo2NMaC7xgkknwKq3aFUSqCsKhfnZC1QRJouFMTqIVBCOYi3Ga2bAPKpXLLVw8aqbiPKcuSNC0Ay/S+gqqhtq9XJOiCTWqk4F2DqQEFJFem8Mi1WdfsSvbqDGq5rX7x640sZ+dLydY3Xex4wIy9EW+O1yoAYQslVKMKEo58yaoas0JnBakelgHxYeW//n1efvRPveJ06vHpUJrb+Kn50GUbPIJ0AKriemZpzowzjExU3IwUScH699qw9RjyE3ZoKI7pD/jlF6sPfEfRlPBzmCXb73Y+sujSPu/L4CQ==);lineShape=1;rounded=0;" parent="fiC80e0MqhVzmSooXyf7-81" vertex="1">
          <mxGeometry x="1.0341200994119983" y="16.274123190231688" width="17.42816960871935" height="3.5677595801972006" as="geometry" />
        </mxCell>
        <mxCell id="fiC80e0MqhVzmSooXyf7-73" value="" style="shape=stencil(rVfLbhsxDPwaXwmJol7nNP2PAHFqo24cOE4ff19uDa1NeneKAr2t15ylSA6H1CY9vO+e3rYbDu/n0/Hr9sf++bzbpE8b5v3rbnvan/Vpkx436eHleNp+OR0/Xp8vv9+eJsvp6dvx+/SFnxdc69TDhOLw6/KmUs9/Xny+2B/2rzf2tVNiY98o13X7IhTs92MkSeuALFQcIFPo6wAR4moAHIh5HZCKD4EzMThSilS6BWjWyjpA/2YxAPWZIwRkG7REaiiGQMUGLZUq8JCYQjaAnCiDQqdEUixAo0KATGLTqrWHddAT2xhKG2RcrnSiYNNahSrwkCOxjUHpW0DhSvRpbZkSIF9l6skAOg/+LgMS9WYBQgmQTwHJBt0LhQYAkaLlUq8jquWgK4kNumsdBACYmk1r71QBIGulbZZiCEMXlhGaRfYuClKBRuEuiAbOpLKRi09TRgAmsR3U8yj+MiBSd0cSiqAQyu/oPMw+lwGZmhWmHqB6S/cA1f+G1biKBzAqnCoje0AEHlQk3ABSQEGAfpclFUNQOO1RvuvRAFRAW65FC0iQ3zX5LCk1kN7rkYLzUCE1VBn9kdrg71paxemMzhhU6e71XgEd6IxSg+88NHAkJZ90D4jAg9I7dx90AHqvLerFtQyf/wegU7G5nsbkYxn9dTNRBGQpVmJb6RaogSzpPsW246rKAhpBg5qzPQ4hjyLNY1pnIogg3e0BYWjzcoqGoMyLhowFbTngwYF59WkkIN7gN1CtegQiGfz81M0GFYApuf1z1sCV/LvRxgJnYSyeEcoRtCepBydHUfUGT6rsSjZWgrV57rSC4U5f7+ZUIAGMa2XcKa72qO91Ykj09iBBqv/Rf5+BXOvcrv77qGNURJptmTjuKMv2bWwe13wGwNBpFwrOHo39m21r5jRk0LTPuR6D0q4BuFU+jxfL9tX3vFYctJiO0+g0Dt7YpiXc3RSognj/9Rb8d3t9uF65X/aHw+XGfvu/v6Lrq8v1Pj3+Bg==);lineShape=1;rounded=0;" parent="fiC80e0MqhVzmSooXyf7-81" vertex="1">
          <mxGeometry x="29.51238989886803" y="1.2042546587441212" width="14.008045937156858" height="33.40164686022606" as="geometry" />
        </mxCell>
        <mxCell id="fiC80e0MqhVzmSooXyf7-74" value="" style="shape=stencil(lVjLctswDPwaXTEkwec5Tf8jM3FqT9044zh9/H2hKpQNSNo0N9nEkgSwWEAa+O51//CyG4J7vZxP33e/Do+X/cBfhhAOz/vd+XCRp4HvB757Op13386nt+fH6ffLw2g5Pv04/Rx3+D3hUiLvRlRwf6Z/PHH798fXyf54eL6xz45KUfZMtQL7Rr4q+0opbdsXuU/U92EKAFA9OX2ArxQcABRyQQHEhey3AS1Q0C6HRgxOaJmCPoEjNXRCpaIB0ZEDTnsn6zptMVJlcESjpJ2IjWIAgEKBFSDFTpV1QCSnM5cqeUCl2ignBciBIvChCjd0mHImBj6UaslaPOSGLBcdVuHj+xbr9OYexJneDjqdAjUDSMTA6ZgsXWulCnzgQl47PRIYAIKQU2dact8iAHjKWQOkygG/faFULaCCxEnNv+83F/WV8evcsBUkJ2QUVqomSLIDqjhqxcYoAnvXiTnbp37ihr1r2j524dy4D2uiSpITyBl3dZjtfRfa9UqwvG4Op1g4YXS+9aSvA7Kl6QcACVHkxZVAiiXHRiNHnzMAZEp+EVSQNIlSMYCIS20mzQ0tGgKI/JjKkS1QlAJVU5sVKphviyhJ5QBm+Ni75f/Wpne2p4/lD8iUyRVr74Cohr7brYABeXELsciwFy6araS5gBC5vjrbc/do6/4mZx7zjmr6jL0XGusDxiEI15rXclQZyqkQ27ggfTCAlHG1Y5t02gRyELMtHWnWEZBIOq3Jci6w6ci4Yvrgtbuv0zRRWEw8SISLs40zMTGahhczVax9aNoCZJ24KD4AzSuyrAHc+vS6NSIZ3ZbhNoETJOrL8Rkl7joFzoAIdTuV/oYwK1KD9BZqGB9E1OAQFm3F4WmBmx14MmxVUg2sFUyGQuCxzHhJ30dygGdCtm9tCVVnsYNz6IPx1v1NrfmuB+vxdIsEwGkkBlsHDnJO8hWCsUfTlIiLyRfuaFKFbWEP7p98F8OrPXqDHGWhGPuCKuCTb/Ef28vD9ZPB0+F4nL443K7bTwzy1/R5gu//Ag==);lineShape=1;rounded=0;" parent="fiC80e0MqhVzmSooXyf7-81" vertex="1">
          <mxGeometry x="75.4723808885905" width="16.52761911140951" height="35.49803849413044" as="geometry" />
        </mxCell>
        <mxCell id="fiC80e0MqhVzmSooXyf7-75" value="" style="ellipse;whiteSpace=wrap;html=1;aspect=fixed;rounded=0;fillColor=#1ba1e2;fontColor=#ffffff;strokeColor=#006EAF;" parent="fiC80e0MqhVzmSooXyf7-81" vertex="1">
          <mxGeometry x="46.310568824115066" y="6.953605667766238" width="22.21089004702803" height="22.21089004702803" as="geometry" />
        </mxCell>
        <mxCell id="fiC80e0MqhVzmSooXyf7-80" value="" style="shape=stencil(lVjbUlsxDPyavGp8le1nSv+DGULJlBIm0Nvfd92MD7FOzjK8haCNrcuuJO/izevj3ct+F9zr2+n4ff/7cP/2uItfdiEcnh/3p8MbPu3i7S7ePBxP+2+n48/n+/PfL3fdsn/6cfzVf+HPGedFXQcF9/f8RXbSwv9vvp7tnw7PF/ZRaprsU5BWtu2L+Nk+enF1297j320ChCCZXMhnKXkCeJXiCaBK8jMgiyMAxCiEGRBFIwGk4eIFwLMTVNqcBc+jGtq4wCXAkbQFiW0FID5ExGR1gmeAJm0Oa5OYtu1TGmkd9io+E/smvsyVRLOW44jgsHejUK7bV1Fv7Nl9NA733u0dyYBWidn+PqnrEiWrsY+EOEUl2d8vJP6lSTIVIU237euqghAAUqI1WxIkSstaRG09sHi2IGHmTBs0vW5fRjguaK/kQq1KNsKCFBIGNFxgpkxXS+ZCkzIDII6J1BwAzcTUSSJF0QFzEYFGjVQFADqfAF5UfiU/n6AqgdQFwmrqtMBpFlYUxpw4UKMwp3VE/QLg2JVQaab02ij264AsaT4BasDI3JJNXE5DLrcAdVajlGnP6SfMPkTkgWU6SzCNtoxy3ALU2QcoTGNR0lWTQmfmFE1zLYGiTPNQS8YHj3mDM85kGqpXOCCbKFUqY51xhtOF+uDd0jeWVOtI/tYRpr6z0lYIgGk9mkYctuJaDIN4c0PmTPWBclQri+0OACjTmU8D4qqfNDp51pX0gdSZ+FDB0XnCUKgxCStaaJhJnRudqdCj43wC1DiQPKyHgFyoVq6nDJzg2djgrApk3hUVshEtgPUsBNEMkgBkAkD1x5UPLHHZ2yXmgzykYpcS9TSsWIrMcAXGMTWOq+kEbTST8sZ8bsZhXfrk1gZge1ali1XfMbIFMMb1LSZZQGUnJPGGcY1GCWKdZqe7LpHE+bWQIXFkyvXLEnIhM6xasa9Wo3yFbmLVjtE1jkxeL9axOS5jLvYw0nWDre3e89iyKtFsw45rPQJY7AF0QZcws7MPdKRbOTv5YLRhDRSaaxzmNeEscbqOE3+dHRmgyiw+q3Ze+C7vbIJBZEdo5uzeqcsbzoa9neiVvvD4MUEt9nFMWRv2n3tB+tgeH96fqx4OT0/n167L/9vnLXx1fhqLt/8A);lineShape=1;rounded=0;shadow=1;" parent="fiC80e0MqhVzmSooXyf7-81" vertex="1">
          <mxGeometry y="39.4221626549826" width="86.01498839626845" height="6.577837345017395" as="geometry" />
        </mxCell>
        <mxCell id="V_PbAXa_nVeIReF9qtl--3" style="edgeStyle=orthogonalEdgeStyle;rounded=0;orthogonalLoop=1;jettySize=auto;html=1;entryX=0;entryY=0;entryDx=0;entryDy=30;entryPerimeter=0;curved=1;sketch=1;" parent="1" source="V_PbAXa_nVeIReF9qtl--2" target="fiC80e0MqhVzmSooXyf7-60" edge="1">
          <mxGeometry relative="1" as="geometry" />
        </mxCell>
        <mxCell id="V_PbAXa_nVeIReF9qtl--2" value="" style="ellipse;whiteSpace=wrap;html=1;aspect=fixed;rounded=0;fillColor=#1ba1e2;fontColor=#ffffff;strokeColor=#006EAF;" parent="1" vertex="1">
          <mxGeometry x="229" y="196" width="44" height="44" as="geometry" />
        </mxCell>
        <mxCell id="V_PbAXa_nVeIReF9qtl--5" style="edgeStyle=orthogonalEdgeStyle;rounded=0;orthogonalLoop=1;jettySize=auto;html=1;entryX=0;entryY=0;entryDx=0;entryDy=30;entryPerimeter=0;curved=1;sketch=1;" parent="1" source="V_PbAXa_nVeIReF9qtl--4" target="fiC80e0MqhVzmSooXyf7-60" edge="1">
          <mxGeometry relative="1" as="geometry" />
        </mxCell>
        <mxCell id="V_PbAXa_nVeIReF9qtl--4" value="" style="ellipse;whiteSpace=wrap;html=1;aspect=fixed;rounded=0;fillColor=#1ba1e2;fontColor=#ffffff;strokeColor=#006EAF;" parent="1" vertex="1">
          <mxGeometry x="229" y="362" width="44" height="44" as="geometry" />
        </mxCell>
        <mxCell id="V_PbAXa_nVeIReF9qtl--6" value="" style="ellipse;whiteSpace=wrap;html=1;aspect=fixed;rounded=0;fillColor=#60a917;fontColor=#ffffff;strokeColor=#2D7600;" parent="1" vertex="1">
          <mxGeometry x="594" y="210" width="44" height="44" as="geometry" />
        </mxCell>
        <mxCell id="V_PbAXa_nVeIReF9qtl--48" style="edgeStyle=orthogonalEdgeStyle;curved=1;sketch=1;orthogonalLoop=1;jettySize=auto;html=1;entryX=0.5;entryY=0;entryDx=0;entryDy=0;fontFamily=Helvetica;fontSize=12;fontColor=default;exitX=1;exitY=0.5;exitDx=0;exitDy=0;" parent="1" source="V_PbAXa_nVeIReF9qtl--8" target="V_PbAXa_nVeIReF9qtl--38" edge="1">
          <mxGeometry relative="1" as="geometry">
            <mxPoint x="259" y="148" as="sourcePoint" />
          </mxGeometry>
        </mxCell>
        <mxCell id="V_PbAXa_nVeIReF9qtl--8" value="" style="ellipse;whiteSpace=wrap;html=1;aspect=fixed;rounded=0;fillColor=#fa6800;strokeColor=#C73500;fontColor=#000000;" parent="1" vertex="1">
          <mxGeometry x="229" y="113" width="44" height="44" as="geometry" />
        </mxCell>
        <mxCell id="V_PbAXa_nVeIReF9qtl--19" value="" style="ellipse;whiteSpace=wrap;html=1;aspect=fixed;rounded=0;fillColor=#1ba1e2;fontColor=#ffffff;strokeColor=#006EAF;shadow=0;" parent="1" vertex="1">
          <mxGeometry x="326" y="421" width="31" height="31" as="geometry" />
        </mxCell>
        <mxCell id="V_PbAXa_nVeIReF9qtl--38" value="TypeError" style="shape=image;html=1;verticalAlign=middle;verticalLabelPosition=middle;labelBackgroundColor=#ffffff;imageAspect=0;aspect=fixed;image=https://cdn2.iconfinder.com/data/icons/circle-icons-1/64/denied-128.png;shadow=0;dashed=0;fontFamily=Comic Sans MS;fontSize=14;fontColor=default;strokeColor=#FF0080;fillColor=#F58534;gradientColor=none;labelPosition=right;align=left;" parent="1" vertex="1">
          <mxGeometry x="347" y="168" width="35" height="35" as="geometry" />
        </mxCell>
        <mxCell id="V_PbAXa_nVeIReF9qtl--41" style="edgeStyle=orthogonalEdgeStyle;curved=1;sketch=1;orthogonalLoop=1;jettySize=auto;html=1;fontFamily=Helvetica;fontSize=12;fontColor=default;dashed=1;" parent="1" source="V_PbAXa_nVeIReF9qtl--19" target="fiC80e0MqhVzmSooXyf7-64" edge="1">
          <mxGeometry relative="1" as="geometry">
            <mxPoint x="419" y="174" as="targetPoint" />
            <Array as="points">
              <mxPoint x="342" y="298" />
            </Array>
          </mxGeometry>
        </mxCell>
        <mxCell id="V_PbAXa_nVeIReF9qtl--43" value="ValueError" style="aspect=fixed;html=1;points=[];align=left;image;fontSize=14;image=img/lib/azure2/general/Globe_Error.svg;shadow=0;dashed=0;fontFamily=Comic Sans MS;fontColor=default;strokeColor=#FF0000;fillColor=#F58534;gradientColor=none;labelPosition=right;verticalLabelPosition=middle;verticalAlign=middle;" parent="1" vertex="1">
          <mxGeometry x="447" y="370" width="52" height="61.28" as="geometry" />
        </mxCell>
        <mxCell id="V_PbAXa_nVeIReF9qtl--44" style="edgeStyle=orthogonalEdgeStyle;curved=1;sketch=1;orthogonalLoop=1;jettySize=auto;html=1;dashed=1;fontFamily=Helvetica;fontSize=12;fontColor=default;" parent="1" source="fiC80e0MqhVzmSooXyf7-64" target="V_PbAXa_nVeIReF9qtl--43" edge="1">
          <mxGeometry relative="1" as="geometry">
            <Array as="points">
              <mxPoint x="427" y="340" />
              <mxPoint x="469" y="340" />
            </Array>
          </mxGeometry>
        </mxCell>
      </root>
    </mxGraphModel>
  </diagram>
</mxfile>
